<svg xmlns="http://www.w3.org/2000/svg" viewBox="0 0 99.36 128.6"><path d="M40.04 -9.42L40.04 0L2.95 0L2.95 -8.12L23.77 -30.23L3.8 -30.23L3.8 -39.48L39.66 -39.48L39.66 -31.5L19.16 -9.42L40.04 -9.42Z" fill="#000000" fill-rule="nonzero" transform="translate(10.8,83.19)"/><path d="M31.22 -9.04L31.22 -0.35Q29.18 0.18 26.89 0.47Q24.61 0.77 21.3 0.77L21.3 0.77Q13.92 0.77 10.32 -2.21Q6.71 -5.2 6.71 -12.45L6.71 -12.45L6.71 -30.9L1.51 -30.9L1.51 -39.48L6.71 -39.48L6.71 -50.77L19.37 -50.77L19.37 -39.48L31.22 -39.48L31.22 -30.9L19.37 -30.9L19.37 -16.91Q19.37 -14.84 19.41 -13.29Q19.44 -11.74 19.97 -10.51L19.97 -10.51Q20.46 -9.28 21.71 -8.56Q22.96 -7.84 25.35 -7.84L25.35 -7.84Q26.33 -7.84 27.93 -8.26Q29.53 -8.68 30.16 -9.04L30.16 -9.04L31.22 -9.04Z" fill="#000000" fill-rule="nonzero" transform="translate(53.76,83.19)"/></svg>