<svg xmlns="http://www.w3.org/2000/svg" viewBox="0 15.15999984741211 42.68000030517578 35.650001525878906" data-asc="1.00537109375" width="42.68000030517578" height="35.650001525878906"><defs/><g fill="#000000"><g transform="translate(0, 0)"><path d="M22.02 50.27L0 50.27L0 46.88L15.89 26.83L0.34 26.83L0.34 23.00L21.61 23.00L21.61 26.27L5.64 46.39L22.02 46.39L22.02 50.27ZM42.68 50.02Q41.38 50.37 39.86 50.59Q38.33 50.81 37.13 50.81Q32.96 50.81 30.79 48.56Q28.61 46.31 28.61 41.36L28.61 26.86L25.51 26.86L25.51 23.00L28.61 23.00L28.61 15.16L33.20 15.16L33.20 23.00L42.68 23.00L42.68 26.86L33.20 26.86L33.20 39.28Q33.20 41.43 33.30 42.64Q33.40 43.85 33.98 44.90Q34.52 45.87 35.46 46.33Q36.40 46.78 38.33 46.78Q39.45 46.78 40.67 46.45Q41.89 46.12 42.43 45.90L42.68 45.90L42.68 50.02Z"/></g></g></svg>